#!OML:ASF H:\BabyWalks\Project 1\Capture day 1\Session 1\baby.ASF
:FULLY-SPECIFIED
:DEGREES
757
root -27.2106 16.1898 -3.72839 -282.718 79.7236 -288.005
lowerback 13.1912 1.26758 -8.95941
upperback 4.45485 0.698308 -2.32361
thorax -2.73344 0.435716 2.49059
lowerneck 6.15815 -1.18009 3.61248
upperneck -16.0728 -1.61046 -4.07184
head -5.9288 -0.609132 -1.78289
rclavicle -1.44119e-014 -1.76918e-014
rhumerus -72.1697 51.2488 -109.65
rradius 84.1253
rwrist 22.8999
rhand -19.1121 18.7523
rfingers 7.12502
rthumb 7.19692 -11.1053
lclavicle -1.44119e-014 -1.76918e-014
lhumerus -64.4937 -44.3996 101.774
lradius 81.7247
lwrist -3.99023
lhand 4.61513 -11.1571
lfingers 7.12502
lthumb 30.0028 16.4297
rfemur -48.7295 -2.30316 4.5374
rtibia 55.786
rfoot -10.8036 7.39191
rtoes -2.31602
lfemur 23.0847 2.98845 -28.2358
ltibia 6.99722e-014
lfoot -29.6037 11.7661
ltoes -18.3471
758
root -27.2318 16.168 -3.72405 -282.823 79.4086 -288.362
lowerback 13.139 1.33275 -9.36317
upperback 4.52143 0.748672 -2.43245
thorax -2.63826 0.457992 2.59388
lowerneck 6.15681 -1.22141 3.61445
upperneck -16.3858 -1.65339 -3.99775
head -6.0284 -0.6303 -1.75913
rclavicle 1.07344e-014 3.20043e-014
rhumerus -71.9184 50.9269 -109.39
rradius 84.0644
rwrist 23.2276
rhand -19.5961 18.9749
rfingers 7.12502
rthumb 6.7297 -10.8981
lclavicle 1.07344e-014 3.20043e-014
lhumerus -64.4265 -44.3259 101.549
lradius 81.9361
lwrist -3.93862
lhand 4.68212 -11.0826
lfingers 7.12502
lthumb 30.0667 16.4926
rfemur -49.3197 -2.16814 4.19161
rtibia 56.0906
rfoot -10.8073 7.31517
rtoes -2.45883
lfemur 21.4236 3.12091 -28.7025
ltibia 2.65594
lfoot -31.1285 12.3872
ltoes -17.8658
759
root -27.2493 16.1501 -3.7179 -282.934 79.1254 -288.741
lowerback 13.0687 1.39429 -9.71824
upperback 4.56491 0.800356 -2.54626
thorax -2.558 0.481406 2.66448
lowerneck 6.13632 -1.26538 3.61621
upperneck -16.657 -1.69876 -3.91658
head -6.11178 -0.653928 -1.73259
rclavicle -1.68967e-015 -2.14687e-014
rhumerus -71.7147 50.5967 -109.19
rradius 83.9991
rwrist 23.5773
rhand -20.0968 19.1852
rfingers 7.12502
rthumb 6.24635 -10.7027
lclavicle -1.68967e-015 -2.14687e-014
lhumerus -64.3751 -44.2624 101.326
lradius 82.1393
lwrist -3.82534
lhand 4.75006 -11.016
lfingers 7.12502
lthumb 30.1315 16.5474
rfemur -49.8692 -1.99386 3.87118
rtibia 56.3298
rfoot -10.8134 7.19988
rtoes -2.62178
lfemur 20.3441 3.21364 -29.0287
ltibia 4.10322
lfoot -32.0351 12.6898
ltoes -17.3148
760
root -27.2628 16.1366 -3.7101 -283.062 78.8844 -289.141
lowerback 12.9807 1.45024 -10.0141
upperback 4.58937 0.852365 -2.66012
thorax -2.4886 0.505385 2.702
lowerneck 6.09721 -1.31101 3.62119
upperneck -16.8854 -1.74667 -3.83935
head -6.17865 -0.679457 -1.70732
rclavicle -1.38652e-014 -5.80451e-014
rhumerus -71.5504 50.2695 -109.045
rradius 83.9313
rwrist 23.9359
rhand -20.6067 19.3769
rfingers 7.12502
rthumb 5.75408 -10.525
lclavicle -1.38652e-014 -5.80451e-014
lhumerus -64.335 -44.2048 101.109
lradius 82.3307
lwrist -3.66206
lhand 4.86359 -10.9319
lfingers 7.12502
lthumb 30.2399 16.6117
rfemur -50.3621 -1.78396 3.58966
rtibia 56.4997
rfoot -10.8253 7.04664
rtoes -2.80573
lfemur 19.4901 3.28286 -29.252
ltibia 5.10791
lfoot -32.7253 12.7909
ltoes -16.6906
761
root -27.2723 16.1277 -3.70082 -283.194 78.6964 -289.535
lowerback 12.8901 1.4965 -10.2395
upperback 4.596 0.898728 -2.76981
thorax -2.43626 0.52738 2.70555
lowerneck 6.03386 -1.35545 3.62349
upperneck -17.0571 -1.79443 -3.76694
head -6.22343 -0.705372 -1.68276
rclavicle -3.27995e-015 -1.80894e-014
rhumerus -71.423 49.9543 -108.953
rradius 83.8629
rwrist 24.2943
rhand -21.0864 19.5471
rfingers 7.12502
rthumb 5.29094 -10.3668
lclavicle -3.27995e-015 -1.80894e-014
lhumerus -64.3063 -44.15 100.904
lradius 82.4984
lwrist -3.48019
lhand 5.02857 -10.821
lfingers 7.12502
lthumb 30.3972 16.6936
rfemur -50.7768 -1.54561 3.35903
rtibia 56.6002
rfoot -10.8413 6.86155
rtoes -3.00448
lfemur 18.8015 3.32964 -29.3785
ltibia 5.82799
lfoot -33.273 12.742
ltoes -16.0714
762
root -27.2783 16.1233 -3.69084 -283.343 78.5689 -289.925
lowerback 12.8084 1.53147 -10.3757
upperback 4.58339 0.937462 -2.87547
thorax -2.40848 0.546934 2.66478
lowerneck 5.94941 -1.398 3.63042
upperneck -17.166 -1.84211 -3.70953
head -6.24477 -0.731473 -1.66338
rclavicle 1.72943e-014 6.77856e-014
rhumerus -71.3316 49.6565 -108.915
rradius 83.7959
rwrist 24.6338
rhand -21.4988 19.6862
rfingers 7.12502
rthumb 4.89268 -10.2373
lclavicle 1.72943e-014 6.77856e-014
lhumerus -64.2968 -44.0998 100.721
lradius 82.6346
lwrist -3.31629
lhand 5.20764 -10.7136
lfingers 7.12502
lthumb 30.568 16.7693
rfemur -51.1054 -1.29002 3.18913
rtibia 56.6323
rfoot -10.8554 6.65709
rtoes -3.20912
lfemur 18.2659 3.35937 -29.4156
ltibia 6.31018
lfoot -33.6759 12.5909
ltoes -15.5469
763
root -27.2808 16.1234 -3.68042 -283.486 78.5117 -290.27
lowerback 12.745 1.5526 -10.4185
upperback 4.55842 0.965044 -2.96995
thorax -2.40249 0.562084 2.58539
lowerneck 5.84633 -1.43859 3.64094
upperneck -17.2135 -1.89037 -3.66999
head -6.24361 -0.757764 -1.6499
rclavicle -1.98785e-016 -4.67144e-015
rhumerus -71.2664 49.3872 -108.918
rradius 83.736
rwrist 24.9279
rhand -21.8412 19.7908
rfingers 7.12502
rthumb 4.5621 -10.14
lclavicle -1.98785e-016 -4.67144e-015
lhumerus -64.3041 -44.0511 100.567
lradius 82.7326
lwrist -3.21212
lhand 5.36758 -10.643
lfingers 7.12502
lthumb 30.7205 16.8114
rfemur -51.3286 -1.02764 3.08932
rtibia 56.599
rfoot -10.8659 6.43755
rtoes -3.39968
lfemur 17.8972 3.36829 -29.3673
ltibia 6.56166
lfoot -33.924 12.3795
ltoes -15.174
764
root -27.2809 16.1278 -3.67067 -283.69 78.5262 -290.634
lowerback 12.701 1.56084 -10.364
upperback 4.52597 0.983285 -3.04686
thorax -2.41395 0.573307 2.47185
lowerneck 5.72916 -1.47403 3.65216
upperneck -17.2113 -1.93615 -3.65453
head -6.22429 -0.781893 -1.64416
rclavicle 8.44835e-016 1.82882e-014
rhumerus -71.2149 49.1732 -108.946
rradius 83.6909
rwrist 25.1388
rhand -22.0603 19.8692
rfingers 7.12502
rthumb 4.35053 -10.0661
lclavicle 8.44835e-016 1.82882e-014
lhumerus -64.3165 -43.9951 100.443
lradius 82.7873
lwrist -3.19676
lhand 5.53133 -10.6002
lfingers 7.12502
lthumb 30.8766 16.8247
rfemur -51.451 -0.760071 3.06526
rtibia 56.5018
rfoot -10.8552 6.22685
rtoes -3.57309
lfemur 17.6991 3.37404 -29.248
ltibia 6.58587
lfoot -34.0134 12.1415
ltoes -14.9355
765
root -27.2788 16.1366 -3.66168 -283.848 78.6156 -290.894
lowerback 12.7043 1.54802 -10.2098
upperback 4.48435 0.977955 -3.10832
thorax -2.45813 0.574336 2.32211
lowerneck 5.5979 -1.50171 3.6618
upperneck -17.1579 -1.97464 -3.65379
head -6.18612 -0.802153 -1.64313
rclavicle 4.72114e-016 2.03257e-014
rhumerus -71.1897 49.0207 -109.016
rradius 83.6568
rwrist 25.2873
rhand -22.1563 19.9012
rfingers 7.12502
rthumb 4.25781 -10.036
lclavicle 4.72114e-016 2.03257e-014
lhumerus -64.338 -43.9345 100.348
lradius 82.7953
lwrist -3.27909
lhand 5.6321 -10.6301
lfingers 7.12502
lthumb 30.9727 16.7766
rfemur -51.4509 -0.509366 3.11266
rtibia 56.343
rfoot -10.8251 6.02345
rtoes -3.71364
lfemur 17.6804 3.356 -29.0695
ltibia 6.3888
lfoot -33.9272 11.9164
ltoes -14.8804
766
root -27.275 16.1499 -3.65369 -283.952 78.7806 -291.043
lowerback 12.7449 1.51225 -9.97171
upperback 4.44196 0.947352 -3.14292
thorax -2.52082 0.563197 2.15749
lowerneck 5.45099 -1.51867 3.66495
upperneck -17.0688 -2.0031 -3.67395
head -6.13365 -0.816183 -1.6483
rclavicle -7.45443e-016 4.02042e-014
rhumerus -71.1824 48.9594 -109.114
rradius 83.6349
rwrist 25.3714
rhand -22.1563 19.887
rfingers 7.12502
rthumb 4.25785 -10.0502
lclavicle -7.45443e-016 4.02042e-014
lhumerus -64.3509 -43.8594 100.283
lradius 82.7587
lwrist -3.45012
lhand 5.73442 -10.6893
lfingers 7.12502
lthumb 31.0702 16.6988
rfemur -51.33 -0.280211 3.23179
rtibia 56.1215
rfoot -10.771 5.8329
rtoes -3.83211
lfemur 17.8418 3.31305 -28.8372
ltibia 5.97928
lfoot -33.6821 11.6943
ltoes -14.9176
